<svg width="303" height="302" viewBox="0 0 303 302" fill="none" xmlns="http://www.w3.org/2000/svg">
<path d="M144.687 268.578C145.346 268.619 145.863 268.842 146.239 269.246C146.614 269.65 146.784 270.142 146.747 270.721C146.697 271.519 146.356 272.179 145.722 272.7C145.067 273.24 144.33 273.485 143.512 273.434C142.853 273.392 142.346 273.17 141.99 272.767C141.614 272.383 141.444 271.892 141.481 271.293C141.531 270.494 141.874 269.824 142.509 269.283C143.143 268.762 143.869 268.526 144.687 268.578Z" fill="white"/>
<path d="M102.246 281.507L103.733 278.5L109.068 280.03L116.93 263.934L120.996 265.1L113.134 281.196L118.497 282.735L117.011 285.741L102.246 281.507Z" fill="white"/>
<path d="M101.111 257.582C102.394 258.189 103.409 258.99 104.155 259.985C104.884 260.971 105.292 262.072 105.381 263.286C105.47 264.501 105.22 265.732 104.63 266.98C103.826 268.679 102.697 270.037 101.243 271.052C99.762 272.078 98.1331 272.668 96.3562 272.823C94.5611 272.969 92.8049 272.636 91.0874 271.824C89.8038 271.216 88.7931 270.406 88.0553 269.394C87.291 268.39 86.8642 267.281 86.7752 266.067C86.668 264.843 86.9095 263.608 87.4997 262.36C88.3122 260.643 89.4545 259.281 90.9267 258.273C92.3988 257.266 94.0414 256.694 95.8545 256.556C97.641 256.427 99.393 256.769 101.111 257.582ZM99.0557 260.592C98.1518 260.165 97.2052 260.038 96.2159 260.211C95.2266 260.385 94.3188 260.807 93.4925 261.478C92.6661 262.149 92.0263 262.964 91.573 263.922C91.0598 265.007 90.9737 265.984 91.3147 266.853C91.6291 267.732 92.2472 268.39 93.1693 268.826C94.0913 269.262 95.0379 269.389 96.0091 269.207C96.9622 269.016 97.8472 268.572 98.664 267.874C99.4723 267.195 100.107 266.367 100.569 265.391C101.074 264.324 101.183 263.369 100.896 262.525C100.591 261.673 99.9778 261.029 99.0557 260.592Z" fill="white"/>
<path d="M76.0804 259.896C75.0866 260.125 74.0288 260.149 72.9072 259.97C71.7577 259.795 70.6845 259.355 69.6878 258.652C68.6748 257.937 67.94 257.088 67.4834 256.104C66.999 255.126 66.8327 254.078 66.9845 252.962C67.1363 251.845 67.5986 250.739 68.3713 249.644C68.7289 249.138 69.147 248.649 69.6256 248.179C70.851 246.963 72.212 246.076 73.7085 245.516C75.1934 244.973 76.6664 244.777 78.1273 244.927C79.5882 245.077 80.8906 245.555 82.0343 246.363C83.0311 247.066 83.7366 247.87 84.1508 248.774C84.5488 249.667 84.7083 250.551 84.6295 251.426L92.034 244.057L95.4898 246.496L77.8091 264.054L74.3533 261.615L76.0804 259.896ZM73.1304 250.653C72.8508 250.945 72.6187 251.222 72.4341 251.484C71.7537 252.448 71.5009 253.395 71.6758 254.327C71.8508 255.258 72.3713 256.029 73.2373 256.641C73.8582 257.079 74.5862 257.348 75.4215 257.448C76.2452 257.564 77.091 257.476 77.9589 257.183C78.8268 256.889 79.6226 256.386 80.3463 255.673C80.7115 255.294 80.9633 255.007 81.1017 254.811C81.7822 253.847 82.035 252.899 81.86 251.968C81.6687 251.025 81.1483 250.254 80.2986 249.654C79.6614 249.204 78.9251 248.929 78.0899 248.829C77.2547 248.729 76.4031 248.826 75.5352 249.119C74.6673 249.412 73.8657 249.924 73.1304 250.653Z" fill="white"/>
<path d="M56.1702 238.081C54.337 239.088 52.4131 239.629 50.3985 239.704C48.3558 239.776 46.4332 239.407 44.6307 238.595C42.8001 237.78 41.2599 236.592 40.0101 235.031C38.5479 233.204 37.7977 231.307 37.7597 229.339C37.7217 227.371 38.4303 225.6 39.8854 224.025L42.9037 227.796C42.3542 228.646 42.1358 229.525 42.2485 230.434C42.3455 231.356 42.7503 232.261 43.4626 233.151C44.225 234.104 45.156 234.819 46.2556 235.296C47.3427 235.758 48.5172 235.945 49.779 235.858C51.0284 235.754 52.2589 235.371 53.4707 234.709C54.0328 234.387 54.4778 234.095 54.8057 233.832C56.0705 232.82 56.7823 231.661 56.9413 230.355C57.0877 229.034 56.661 227.749 55.6612 226.5C54.9488 225.61 54.0975 224.946 53.1072 224.509C52.1169 224.072 51.0409 223.896 49.879 223.981L46.8607 220.21C49.2063 219.716 51.4661 219.867 53.6403 220.663C55.7863 221.455 57.5905 222.765 59.0528 224.592C60.1526 225.966 60.8542 227.403 61.1576 228.902C61.4328 230.398 61.2942 231.841 60.7417 233.231C60.1892 234.621 59.2572 235.841 57.9456 236.891C57.3991 237.328 56.8073 237.725 56.1702 238.081Z" fill="white"/>
<path d="M35.6523 214.443C34.4272 214.31 33.3344 213.964 32.3738 213.405C31.4131 212.846 30.6566 212.079 30.1042 211.105L34.3251 209.609L34.8726 210.574C35.4842 211.653 36.2123 212.39 37.0569 212.784C37.8917 213.162 38.9583 213.178 40.2569 212.832L48.751 209.809L50.8374 213.489L34.9296 219.129L32.8432 215.449L35.6523 214.443Z" fill="white"/>
<path d="M24.4392 197.619C23.6656 195.645 23.6018 193.865 24.248 192.28C24.8755 190.703 26.111 189.552 27.9545 188.83C28.5503 188.596 29.0993 188.435 29.6013 188.346C30.2037 188.238 30.7353 188.17 31.196 188.139L35.6297 199.452C35.7673 199.419 35.9572 199.356 36.1992 199.261C37.1675 198.881 37.8215 198.303 38.1612 197.525C38.475 196.736 38.4494 195.876 38.0845 194.945C37.778 194.163 37.3476 193.558 36.7935 193.131C36.2135 192.693 35.5748 192.406 34.8775 192.271L33.2245 188.053C34.9842 188.158 36.6328 188.747 38.1703 189.82C39.682 190.882 40.7954 192.325 41.5106 194.15C42.2842 196.124 42.3459 197.926 41.6958 199.555C41.0456 201.185 39.7615 202.376 37.8436 203.127C37.285 203.346 36.6765 203.52 36.0182 203.649C34.3074 203.998 32.6789 203.981 31.1328 203.599C29.5794 203.198 28.2251 202.483 27.0698 201.453C25.9145 200.424 25.0376 199.146 24.4392 197.619ZM30.2012 192.589C29.8887 192.669 29.6673 192.734 29.5369 192.785C28.6431 193.136 28.058 193.698 27.7814 194.472C27.5049 195.246 27.5491 196.099 27.914 197.03C28.3008 198.017 28.964 198.778 29.9037 199.311C30.8247 199.853 31.8872 200.07 33.0913 199.963L30.2012 192.589Z" fill="white"/>
<path d="M28.8974 184.35C27.1915 184.397 25.6128 184.121 24.1614 183.523C22.7059 182.905 21.5057 182.041 20.5607 180.929C19.6157 179.818 18.9993 178.567 18.7114 177.176C18.4599 175.962 18.4939 174.893 18.8132 173.969C19.1284 173.025 19.6176 172.281 20.2807 171.735L17.8748 171.804L17.0172 167.662L33.8881 167.171L34.7457 171.313L32.2749 171.365C33.1726 171.853 33.9834 172.564 34.7075 173.496C35.408 174.413 35.884 175.479 36.1354 176.693C36.3827 177.888 36.3373 179 35.9991 180.03C35.6413 181.064 35.0255 181.937 34.1517 182.649C33.2584 183.365 32.1556 183.859 30.8434 184.131C30.2363 184.256 29.5876 184.329 28.8974 184.35ZM26.3103 171.559C25.7848 171.586 25.4046 171.624 25.1696 171.672C24.0141 171.912 23.1842 172.441 22.6798 173.26C22.1714 174.06 22.0226 174.969 22.2335 175.987C22.3916 176.751 22.7318 177.457 23.2539 178.104C23.772 178.732 24.4481 179.236 25.2822 179.614C26.0968 179.997 27.0119 180.175 28.0276 180.149C28.4119 180.131 28.7705 180.087 29.1034 180.018C30.2785 179.775 31.1398 179.249 31.6874 178.441C32.2154 177.638 32.374 176.727 32.1631 175.708C32.005 174.944 31.6649 174.239 31.1427 173.591C30.601 172.948 29.9151 172.446 29.085 172.087C28.2509 171.708 27.326 171.532 26.3103 171.559Z" fill="white"/>
<path d="M28.0437 156.905C28.1647 156.918 28.325 156.919 28.5246 156.907C28.9239 156.884 29.207 156.757 29.3738 156.527C29.5195 156.278 29.5766 155.884 29.545 155.345L29.4292 153.368L33 153.79L33.1561 156.456C33.3316 159.451 32.1714 161.021 29.6757 161.167C29.1965 161.195 28.725 161.183 28.2611 161.13L20.1824 160.191L20.2981 162.167L16.819 161.77L16.7014 159.764L12.5564 159.285L12.309 155.062L16.4541 155.541L16.2383 151.857L19.7175 152.254L19.935 155.968L28.0437 156.905Z" fill="white"/>
<path d="M14.6844 142.484C14.6538 143.143 14.4393 143.664 14.0412 144.046C13.643 144.428 13.1542 144.605 12.5748 144.578C11.7757 144.541 11.1104 144.21 10.5789 143.585C10.0283 142.938 9.77209 142.206 9.8102 141.386C9.83995 140.747 10.0539 140.236 10.4521 139.855C10.8503 139.473 11.3391 139.295 11.9184 139.322C12.7176 139.359 13.3929 139.691 13.9444 140.317C14.4759 140.943 14.7226 141.665 14.6844 142.484ZM16.7432 140.838L33.2086 144.547L33.012 148.773L16.5466 145.063L16.7432 140.838Z" fill="white"/>
<path d="M31.0547 129.607L19.5953 121.072L20.3699 116.609L35.1909 128.407L34.3086 133.491L17.3897 133.782L18.1591 129.349L31.0547 129.607Z" fill="white"/>
<path d="M24.3674 104.53C25.0564 102.525 26.1604 101.128 27.6794 100.339C29.1794 99.5434 30.8657 99.4674 32.7382 100.111C33.3435 100.319 33.8663 100.551 34.3066 100.809C34.835 101.117 35.2846 101.409 35.6552 101.684L31.7062 113.175C31.8321 113.239 32.018 113.314 32.2639 113.398C33.2474 113.736 34.1204 113.719 34.8828 113.347C35.6328 112.949 36.1704 112.277 36.4954 111.331C36.7684 110.537 36.8322 109.797 36.6867 109.113C36.5289 108.403 36.228 107.771 35.7841 107.217L37.2564 102.933C38.529 104.152 39.4036 105.669 39.8801 107.482C40.3442 109.27 40.2577 111.091 39.6207 112.945C38.9316 114.95 37.8117 116.362 36.2608 117.183C34.7099 118.003 32.9604 118.079 31.0123 117.409C30.4448 117.214 29.8685 116.953 29.2834 116.625C27.7543 115.782 26.5245 114.714 25.5941 113.422C24.6702 112.11 24.1015 110.688 23.8881 109.156C23.6746 107.623 23.8344 106.081 24.3674 104.53ZM32.015 104.43C31.7254 104.289 31.5144 104.195 31.382 104.149C30.4741 103.837 29.6641 103.887 28.9519 104.298C28.2397 104.708 27.7211 105.387 27.3961 106.332C27.0516 107.335 27.0643 108.344 27.4344 109.359C27.7855 110.368 28.4544 111.222 29.4409 111.92L32.015 104.43Z" fill="white"/>
<path d="M52.9599 78.2835L48.2433 85.198L50.373 89.1564L47.8879 92.7996L36.904 71.689L39.6595 67.6493L59.13 76.3187L56.628 79.9866L52.9599 78.2835ZM49.9543 76.8869L41.7731 73.122L46.5056 81.9426L49.9543 76.8869Z" fill="white"/>
<path d="M55.7818 55.4715C56.6522 54.5884 57.5674 54.0161 58.5272 53.7546C59.4868 53.4648 60.3707 53.4654 61.1789 53.7566L59.7858 51.7938L62.7551 48.7812L72.6137 62.626C73.5139 63.9065 74.0965 65.267 74.3615 66.7076C74.6408 68.1623 74.5523 69.6196 74.0962 71.0796C73.6543 72.5536 72.8156 73.9174 71.5801 75.1708C69.9375 76.8374 68.2612 77.7547 66.5512 77.9226C64.8552 78.0763 63.3727 77.4435 62.1038 76.0243L65.031 73.0544C65.6284 73.531 66.3085 73.6957 67.0711 73.5488C67.862 73.4016 68.6225 72.9577 69.3525 72.217C70.223 71.3339 70.6965 70.3264 70.7732 69.1944C70.8781 68.0622 70.5018 66.877 69.6443 65.6387L68.1227 63.5071C68.2009 64.5389 68.0602 65.6077 67.7004 66.7134C67.3548 67.8049 66.7538 68.7851 65.8973 69.654C65.0409 70.5229 64.0835 71.1096 63.025 71.4143C61.9663 71.6907 60.8914 71.6701 59.8001 71.3528C58.7086 71.0071 57.6857 70.364 56.7313 69.4233C56.2898 68.9881 55.869 68.4891 55.4689 67.9263C54.483 66.5333 53.8359 65.0672 53.5278 63.5279C53.2337 61.9743 53.2867 60.496 53.6866 59.093C54.0866 57.69 54.785 56.4829 55.7818 55.4715ZM64.6723 58.6741C64.3581 58.2521 64.1156 57.9569 63.9447 57.7884C63.1042 56.9601 62.2033 56.5635 61.2419 56.5988C60.2945 56.6198 59.4558 57.0006 58.7257 57.7413C58.1782 58.2968 57.78 58.9715 57.5312 59.7653C57.2964 60.5448 57.253 61.3866 57.401 62.2906C57.5347 63.1807 57.8945 64.0407 58.4803 64.8709C58.7089 65.1804 58.9442 65.4545 59.1863 65.6931C60.041 66.5355 60.9563 66.9602 61.9321 66.9673C62.8938 66.9603 63.7396 66.5865 64.4697 65.8458C65.0172 65.2903 65.4154 64.6156 65.6642 63.8219C65.8988 63.014 65.9351 62.1652 65.7731 61.2754C65.6251 60.3714 65.2582 59.5043 64.6723 58.6741Z" fill="white"/>
<path d="M74.536 39.8561C76.2573 38.6187 77.9658 38.1172 79.6614 38.3515C81.3454 38.5696 82.7652 39.4825 83.9209 41.0902C84.2945 41.6099 84.5866 42.1019 84.7972 42.5663C85.05 43.1235 85.248 43.6216 85.3911 44.0606L75.5256 51.1525C75.5911 51.2778 75.6997 51.446 75.8515 51.6572C76.4585 52.5016 77.1807 52.9923 78.0181 53.1293C78.8601 53.2384 79.6871 53.001 80.4991 52.4173C81.1811 51.927 81.6607 51.3606 81.9377 50.7181C82.2194 50.0477 82.3393 49.3579 82.2977 48.649L85.9759 46.0048C86.309 47.7359 86.1457 49.479 85.486 51.234C84.8309 52.9611 83.7077 54.3967 82.1162 55.5407C80.3948 56.7781 78.6642 57.2832 76.9245 57.056C75.1847 56.8287 73.7136 55.8788 72.5112 54.2061C72.161 53.7189 71.842 53.1724 71.5542 52.5664C70.7939 50.9947 70.4078 49.4126 70.396 47.82C70.4005 46.2158 70.7586 44.7267 71.4706 43.3528C72.1825 41.979 73.2043 40.8134 74.536 39.8561ZM80.8334 44.1964C80.6791 43.9132 80.5611 43.7148 80.4794 43.6011C79.9191 42.8216 79.2296 42.3936 78.411 42.317C77.5923 42.2405 76.777 42.494 75.9651 43.0777C75.1044 43.6964 74.5315 44.527 74.2463 45.5694C73.9495 46.5956 74.0016 47.6789 74.4026 48.8193L80.8334 44.1964Z" fill="white"/>
<path d="M95.304 28.113C96.8473 27.3536 98.2661 27.1793 99.5604 27.59C100.864 27.9739 101.895 28.9375 102.655 30.4808C102.937 31.0551 103.148 31.5975 103.288 32.1083L106.032 41.6247L102.29 43.4659L99.6908 34.5138C99.5857 34.1643 99.4581 33.837 99.308 33.532C98.8664 32.6347 98.2886 32.072 97.5745 31.8439C96.8784 31.6069 96.0906 31.7047 95.2113 32.1374C94.2064 32.6319 93.4951 33.3608 93.0776 34.3242C92.6691 35.2608 92.6264 36.3517 92.9494 37.597L95.6148 46.7508L91.8195 48.6184L87.1193 32.408L90.9147 30.5404L91.4924 32.5297C91.7935 31.6014 92.2774 30.7503 92.9442 29.9763C93.6022 29.1845 94.3888 28.5634 95.304 28.113Z" fill="white"/>
<path d="M107.964 32.0435C107.757 30.3098 107.911 28.6978 108.424 27.2075C108.932 25.698 109.737 24.4127 110.839 23.3516C111.954 22.2656 113.278 21.4929 114.81 21.0333C116.783 20.4417 118.472 20.4678 119.876 21.1116C121.299 21.7498 122.348 22.9491 123.022 24.7097L118.683 26.0108C118.361 25.3556 117.903 24.9082 117.31 24.6686C116.71 24.4099 116.008 24.4012 115.203 24.6425C114.054 24.9871 113.194 25.7044 112.623 26.7943C112.065 27.8593 111.882 29.1984 112.073 30.8114C112.138 31.3765 112.228 31.8506 112.343 32.2338C112.67 33.3258 113.191 34.0883 113.906 34.5213C114.615 34.9352 115.448 34.9985 116.406 34.7113C118.015 34.2288 118.985 33.1447 119.314 31.459L123.653 30.1579C123.423 32.1061 122.713 33.8119 121.523 35.2753C120.353 36.7329 118.8 37.7518 116.865 38.332C114.854 38.9351 113.075 38.8525 111.529 38.0841C109.997 37.2908 108.937 35.9171 108.352 33.963C108.173 33.3692 108.044 32.7293 107.964 32.0435Z" fill="white"/>
<path d="M131.983 17.7204L135.675 28.9494L140.582 16.6075L145.015 16.0337L133.668 42.1866L129.235 42.7604L133.17 33.9019L127.312 18.325L131.983 17.7204Z" fill="white"/>
<path d="M160.742 33.608C160.085 33.5477 159.575 33.3101 159.211 32.8951C158.848 32.4802 158.692 31.9839 158.745 31.4063C158.818 30.6097 159.179 29.9599 159.828 29.4571C160.498 28.9361 161.242 28.7131 162.058 28.788C162.715 28.8483 163.216 29.085 163.56 29.4981C163.925 29.8931 164.08 30.3894 164.026 30.9869C163.952 31.7835 163.591 32.4432 162.94 32.966C162.292 33.4689 161.559 33.6829 160.742 33.608Z" fill="white"/>
<path d="M203.54 21.9126L201.967 24.875L196.678 23.1912L188.354 39.0532L184.323 37.7699L192.648 21.9079L187.331 20.215L188.904 17.2525L203.54 21.9126Z" fill="white"/>
<path d="M203.982 45.8605C202.717 45.2163 201.725 44.3863 201.008 43.3704C200.309 42.3636 199.932 41.2518 199.878 40.0349C199.825 38.8181 200.111 37.5947 200.737 36.3649C201.589 34.6895 202.757 33.3651 204.24 32.3919C205.75 31.4099 207.395 30.8672 209.176 30.7637C210.974 30.6693 212.72 31.0531 214.413 31.915C215.679 32.5591 216.666 33.3981 217.374 34.4318C218.109 35.4568 218.503 36.5777 218.557 37.7945C218.629 39.0204 218.352 40.2483 217.726 41.4781C216.864 43.1714 215.683 44.5001 214.182 45.4642C212.681 46.4284 211.023 46.9531 209.206 47.0385C207.417 47.115 205.676 46.7224 203.982 45.8605ZM206.123 42.9108C207.015 43.3644 207.957 43.5188 208.951 43.3739C209.945 43.229 210.864 42.8331 211.71 42.1862C212.555 41.5393 213.218 40.7436 213.699 39.7989C214.244 38.7295 214.358 37.7553 214.042 36.8765C213.754 35.9889 213.155 35.3138 212.246 34.8511C211.337 34.3884 210.394 34.234 209.418 34.388C208.46 34.551 207.562 34.9695 206.726 35.6432C205.898 36.2992 205.239 37.1084 204.749 38.0709C204.214 39.1225 204.078 40.0741 204.34 40.9257C204.62 41.7864 205.214 42.4481 206.123 42.9108Z" fill="white"/>
<path d="M229.069 44.2721C230.069 44.0722 231.127 44.0782 232.243 44.2904C233.387 44.4985 234.447 44.9686 235.423 45.7006C236.415 46.4447 237.125 47.3148 237.553 48.3108C238.009 49.3029 238.144 50.3549 237.96 51.4669C237.776 52.5789 237.282 53.6708 236.478 54.7427C236.106 55.2387 235.674 55.7147 235.182 56.1706C233.922 57.3505 232.536 58.1984 231.024 58.7142C229.524 59.2141 228.046 59.368 226.59 59.1758C225.134 58.9837 223.846 58.4676 222.726 57.6275C221.75 56.8954 221.068 56.0713 220.68 55.1553C220.308 54.2512 220.174 53.3632 220.278 52.4912L212.664 59.6425L209.28 57.1042L227.461 40.0659L230.845 42.6042L229.069 44.2721ZM231.75 53.5963C232.038 53.3123 232.278 53.0424 232.47 52.7864C233.178 51.8424 233.458 50.9025 233.31 49.9665C233.163 49.0304 232.665 48.2444 231.817 47.6083C231.209 47.1523 230.489 46.8622 229.657 46.7381C228.837 46.598 227.989 46.662 227.113 46.9299C226.237 47.1978 225.427 47.6777 224.683 48.3697C224.307 48.7376 224.047 49.0176 223.903 49.2096C223.194 50.1535 222.914 51.0935 223.062 52.0295C223.226 52.9775 223.724 53.7636 224.556 54.3876C225.18 54.8557 225.908 55.1518 226.74 55.2758C227.572 55.3999 228.426 55.328 229.302 55.0601C230.178 54.7922 230.994 54.3042 231.75 53.5963Z" fill="white"/>
<path d="M248.339 66.6537C250.201 65.701 252.14 65.216 254.156 65.1989C256.199 65.1857 258.111 65.6108 259.889 66.4743C261.695 67.3416 263.2 68.5738 264.404 70.1707C265.813 72.0392 266.508 73.9574 266.489 75.9254C266.47 77.8935 265.71 79.6434 264.21 81.1753L261.302 77.3187C261.876 76.4852 262.12 75.6126 262.034 74.7008C261.963 73.777 261.585 72.8599 260.899 71.9497C260.164 70.9756 259.254 70.2339 258.169 69.7247C257.096 69.2314 255.927 69.0104 254.663 69.0616C253.412 69.1288 252.17 69.476 250.94 70.1031C250.369 70.4086 249.916 70.6877 249.58 70.9406C248.287 71.9159 247.542 73.0538 247.345 74.3543C247.16 75.6708 247.55 76.9678 248.513 78.2453C249.199 79.1556 250.031 79.8435 251.008 80.309C251.985 80.7745 253.056 80.9817 254.22 80.9308L257.128 84.7874C254.769 85.2134 252.514 84.9971 250.364 84.1386C248.242 83.284 246.476 81.9225 245.067 80.0541C244.008 78.6488 243.348 77.1925 243.088 75.6852C242.856 74.1818 243.037 72.7433 243.629 71.3698C244.222 69.9963 245.189 68.8038 246.53 67.7924C247.089 67.3709 247.692 66.9914 248.339 66.6537Z" fill="white"/>
<path d="M268.164 90.8764C269.385 91.0449 270.467 91.4223 271.412 92.0088C272.356 92.5953 273.09 93.3834 273.614 94.3733L269.351 95.7471L268.832 94.7661C268.252 93.6702 267.545 92.9127 266.712 92.4936C265.889 92.0922 264.823 92.0454 263.515 92.3531L254.937 95.1288L252.958 91.3903L269.022 86.2131L271.001 89.9516L268.164 90.8764Z" fill="white"/>
<path d="M278.886 108.018C279.602 110.013 279.614 111.794 278.922 113.36C278.249 114.919 276.981 116.033 275.118 116.701C274.515 116.918 273.962 117.063 273.457 117.138C272.852 117.228 272.319 117.281 271.857 117.298L267.753 105.862C267.615 105.89 267.423 105.949 267.178 106.036C266.199 106.388 265.529 106.947 265.167 107.715C264.83 108.494 264.831 109.354 265.169 110.296C265.453 111.086 265.865 111.703 266.407 112.146C266.974 112.601 267.604 112.906 268.297 113.061L269.827 117.325C268.071 117.169 266.44 116.533 264.935 115.416C263.454 114.311 262.383 112.836 261.721 110.991C261.005 108.996 260.995 107.193 261.692 105.583C262.39 103.973 263.708 102.82 265.646 102.124C266.211 101.921 266.824 101.765 267.486 101.655C269.206 101.356 270.834 101.42 272.368 101.847C273.909 102.293 275.242 103.047 276.367 104.109C277.492 105.171 278.332 106.474 278.886 108.018ZM272.981 112.879C273.295 112.808 273.518 112.749 273.65 112.702C274.554 112.378 275.155 111.833 275.454 111.067C275.753 110.301 275.733 109.447 275.395 108.506C275.037 107.508 274.396 106.729 273.473 106.168C272.568 105.6 271.512 105.352 270.305 105.424L272.981 112.879Z" fill="white"/>
<path d="M274.045 121.152C275.752 121.155 277.322 121.476 278.756 122.116C280.193 122.776 281.367 123.675 282.28 124.813C283.192 125.951 283.772 127.22 284.02 128.618C284.236 129.839 284.171 130.907 283.825 131.821C283.482 132.755 282.972 133.485 282.293 134.012L284.7 134.012L285.438 138.177L268.56 138.179L267.822 134.014L270.293 134.034C269.41 133.52 268.62 132.786 267.924 131.833C267.25 130.896 266.805 129.817 266.589 128.596C266.376 127.395 266.454 126.284 266.822 125.265C267.209 124.241 267.85 123.387 268.744 122.7C269.658 122.01 270.774 121.549 272.094 121.315C272.704 121.207 273.355 121.153 274.045 121.152ZM276.261 134.013C276.787 134.001 277.168 133.974 277.405 133.932C278.567 133.727 279.412 133.222 279.939 132.417C280.471 131.633 280.646 130.728 280.465 129.704C280.329 128.936 280.009 128.221 279.506 127.559C279.006 126.916 278.345 126.393 277.522 125.99C276.719 125.584 275.809 125.38 274.793 125.377C274.409 125.384 274.049 125.417 273.714 125.476C272.533 125.686 271.656 126.186 271.086 126.978C270.535 127.766 270.35 128.672 270.531 129.696C270.667 130.464 270.986 131.179 271.49 131.842C272.013 132.501 272.684 133.022 273.503 133.405C274.326 133.807 275.245 134.01 276.261 134.013Z" fill="white"/>
<path d="M274.104 148.61C273.984 148.594 273.823 148.588 273.623 148.594C273.224 148.606 272.937 148.725 272.764 148.95C272.611 149.194 272.542 149.587 272.558 150.126L272.617 152.106L269.06 151.58L268.981 148.912C268.892 145.913 270.097 144.377 272.596 144.303C273.076 144.289 273.547 144.315 274.009 144.381L282.057 145.554L281.999 143.574L285.465 144.072L285.524 146.081L289.654 146.68L289.779 150.908L285.649 150.31L285.758 153.998L282.292 153.5L282.182 149.782L274.104 148.61Z" fill="white"/>
<path d="M287.04 163.412C287.09 162.754 287.319 162.24 287.728 161.869C288.137 161.499 288.631 161.336 289.21 161.38C290.007 161.44 290.663 161.79 291.176 162.431C291.707 163.093 291.942 163.833 291.881 164.65C291.832 165.289 291.604 165.793 291.195 166.163C290.786 166.533 290.292 166.696 289.713 166.653C288.916 166.592 288.25 166.241 287.717 165.599C287.204 164.959 286.978 164.23 287.04 163.412ZM284.935 164.998L268.584 160.813L268.902 156.595L285.253 160.78L284.935 164.998Z" fill="white"/>
<path d="M270.304 175.81L281.512 184.673L280.609 189.112L266.135 176.89L267.164 171.833L284.085 172.032L283.187 176.441L270.304 175.81Z" fill="white"/>
<path d="M276.263 201.07C275.516 203.054 274.372 204.418 272.831 205.163C271.308 205.915 269.621 205.942 267.768 205.245C267.169 205.019 266.653 204.772 266.22 204.502C265.701 204.178 265.26 203.874 264.897 203.588L269.177 192.216C269.053 192.148 268.87 192.068 268.626 191.977C267.653 191.611 266.78 191.602 266.007 191.953C265.246 192.329 264.689 192.985 264.337 193.92C264.041 194.707 263.956 195.444 264.081 196.132C264.219 196.846 264.501 197.487 264.929 198.054L263.333 202.293C262.096 201.037 261.266 199.496 260.842 197.67C260.43 195.869 260.569 194.052 261.26 192.217C262.006 190.233 263.167 188.853 264.741 188.078C266.315 187.303 268.066 187.278 269.994 188.004C270.555 188.215 271.124 188.493 271.699 188.838C273.203 189.725 274.401 190.828 275.294 192.146C276.18 193.484 276.707 194.922 276.876 196.46C277.045 197.998 276.841 199.535 276.263 201.07ZM268.615 200.948C268.901 201.098 269.109 201.198 269.24 201.247C270.139 201.585 270.95 201.56 271.674 201.169C272.397 200.779 272.935 200.116 273.288 199.181C273.661 198.189 273.677 197.18 273.337 196.154C273.015 195.135 272.371 194.263 271.405 193.536L268.615 200.948Z" fill="white"/>
<path d="M246.922 226.478L251.837 219.703L249.823 215.684L252.412 212.115L262.781 233.534L259.909 237.492L240.698 228.263L243.305 224.669L246.922 226.478ZM249.886 227.961L257.955 231.961L253.48 223.007L249.886 227.961Z" fill="white"/>
<path d="M243.441 249.198C242.546 250.056 241.614 250.602 240.647 250.835C239.68 251.097 238.796 251.071 237.997 250.756L239.332 252.759L236.277 255.684L226.824 241.56C225.961 240.254 225.418 238.877 225.195 237.429C224.958 235.967 225.088 234.513 225.586 233.067C226.071 231.606 226.949 230.267 228.22 229.05C229.91 227.432 231.612 226.563 233.326 226.445C235.026 226.34 236.49 227.016 237.717 228.471L234.705 231.355C234.122 230.861 233.447 230.677 232.68 230.802C231.885 230.926 231.112 231.348 230.361 232.067C229.465 232.925 228.963 233.918 228.853 235.047C228.716 236.176 229.058 237.372 229.879 238.634L231.338 240.809C231.29 239.775 231.461 238.711 231.853 237.616C232.23 236.535 232.859 235.573 233.74 234.729C234.622 233.885 235.596 233.327 236.663 233.053C237.729 232.807 238.803 232.859 239.884 233.207C240.965 233.585 241.969 234.257 242.896 235.225C243.325 235.673 243.731 236.184 244.115 236.758C245.06 238.179 245.664 239.663 245.927 241.211C246.176 242.772 246.081 244.248 245.64 245.639C245.2 247.03 244.467 248.216 243.441 249.198ZM234.647 245.74C234.949 246.171 235.183 246.473 235.349 246.646C236.165 247.499 237.054 247.921 238.016 247.914C238.964 247.92 239.813 247.564 240.564 246.844C241.128 246.305 241.545 245.642 241.817 244.856C242.074 244.083 242.142 243.243 242.02 242.335C241.912 241.442 241.577 240.572 241.016 239.725C240.796 239.409 240.569 239.128 240.334 238.883C239.504 238.016 238.602 237.565 237.626 237.529C236.665 237.509 235.808 237.858 235.057 238.577C234.494 239.116 234.076 239.779 233.805 240.565C233.547 241.366 233.486 242.214 233.622 243.108C233.744 244.016 234.086 244.893 234.647 245.74Z" fill="white"/>
<path d="M224.243 264.264C222.486 265.451 220.764 265.903 219.076 265.62C217.399 265.353 216.006 264.4 214.898 262.759C214.539 262.229 214.261 261.729 214.064 261.258C213.828 260.694 213.644 260.19 213.514 259.747L223.581 252.944C223.519 252.817 223.415 252.646 223.269 252.43C222.687 251.569 221.979 251.057 221.146 250.896C220.308 250.763 219.474 250.976 218.646 251.536C217.95 252.006 217.454 252.558 217.159 253.193C216.858 253.855 216.718 254.541 216.739 255.251L212.986 257.787C212.703 256.047 212.917 254.309 213.627 252.574C214.331 250.867 215.496 249.464 217.12 248.367C218.876 247.18 220.621 246.725 222.353 247.003C224.086 247.28 225.529 248.272 226.682 249.979C227.018 250.476 227.321 251.032 227.591 251.646C228.306 253.239 228.646 254.831 228.612 256.424C228.561 258.027 228.16 259.505 227.408 260.858C226.657 262.211 225.602 263.346 224.243 264.264ZM218.074 259.744C218.22 260.031 218.332 260.233 218.41 260.349C218.948 261.144 219.625 261.592 220.441 261.692C221.257 261.793 222.079 261.563 222.908 261.003C223.786 260.409 224.383 259.596 224.698 258.562C225.024 257.545 225.003 256.46 224.636 255.309L218.074 259.744Z" fill="white"/>
<path d="M203.144 275.401C201.579 276.116 200.156 276.249 198.874 275.801C197.582 275.379 196.579 274.386 195.865 272.822C195.599 272.24 195.404 271.691 195.279 271.177L192.812 261.585L196.605 259.853L198.944 268.876C199.039 269.229 199.157 269.56 199.298 269.869C199.714 270.778 200.275 271.358 200.982 271.606C201.671 271.863 202.462 271.788 203.353 271.381C204.372 270.916 205.104 270.208 205.549 269.257C205.985 268.333 206.059 267.244 205.772 265.989L203.373 256.762L207.221 255.005L211.449 271.345L207.602 273.102L207.082 271.097C206.754 272.016 206.246 272.853 205.557 273.607C204.876 274.38 204.072 274.978 203.144 275.401Z" fill="white"/>
<path d="M190.603 271.106C190.76 272.845 190.56 274.452 190.003 275.927C189.452 277.421 188.61 278.682 187.478 279.711C186.332 280.764 184.986 281.498 183.441 281.913C181.452 282.448 179.764 282.373 178.38 281.689C176.975 281.009 175.962 279.78 175.339 278.001L179.714 276.826C180.017 277.49 180.461 277.951 181.048 278.207C181.64 278.483 182.341 278.512 183.153 278.294C184.312 277.983 185.192 277.291 185.795 276.218C186.383 275.17 186.605 273.837 186.46 272.219C186.411 271.652 186.335 271.175 186.231 270.789C185.936 269.688 185.437 268.911 184.736 268.457C184.039 268.023 183.208 267.936 182.242 268.195C180.62 268.631 179.619 269.686 179.241 271.362L174.866 272.537C175.152 270.596 175.911 268.911 177.143 267.483C178.355 266.06 179.937 265.086 181.888 264.563C183.916 264.018 185.692 264.152 187.215 264.965C188.723 265.802 189.742 267.206 190.271 269.176C190.432 269.775 190.543 270.418 190.603 271.106Z" fill="white"/>
<path d="M166.179 284.728L162.814 273.397L157.552 285.591L153.104 286.037L165.203 260.223L169.651 259.778L165.461 268.519L170.865 284.259L166.179 284.728Z" fill="white"/>
</svg>
